<svg xmlns="http://www.w3.org/2000/svg" viewBox="0 0 24 24" fill="none" stroke="#b58d5c" stroke-width="1.8" stroke-linecap="round" stroke-linejoin="round">
  <!-- Hemisferio Izquierdo -->
  <path d="M12 5a3 3 0 0 0-3-3C6.5 2 4.5 4 4.5 6.5c0 1 .5 1.8 1 2.5a3 3 0 0 0 0 4c-.5.7-1 1.5-1 2.5C4.5 18 6.5 20 9 20a3 3 0 0 0 3-3" />
  <path d="M12 8a2.5 2.5 0 0 0-2.5-2.5" />
  <path d="M12 12a2.5 2.5 0 0 0-2.5-2.5" />
  <path d="M12 16a2.5 2.5 0 0 0-2.5-2.5" />
  <!-- Hemisferio Derecho -->
  <path d="M12 5a3 3 0 0 1 3-3c2.5 0 4.5 2 4.5 4.5c0 1-.5 1.8-1 2.5a3 3 0 0 1 0 4c.5.7 1 1.5 1 2.5C20.5 18 18.5 20 16 20a3 3 0 0 1-3-3" />
  <path d="M12 8a2.5 2.5 0 0 1 2.5-2.5" />
  <path d="M12 12a2.5 2.5 0 0 1 2.5-2.5" />
  <path d="M12 16a2.5 2.5 0 0 1 2.5-2.5" />
</svg>